<svg xmlns="http://www.w3.org/2000/svg" id="Layer_1" x="0" y="0" enable-background="new 0 0 16 16" version="1.1" viewBox="0 0 16 16" xml:space="preserve"><path id="path7" fill="#000" stroke="none" d="M8 .986A7.022 7.022 0 0 0 .986 8c0 1.874.73 3.635 2.055 4.959A6.965 6.965 0 0 0 8 15.014 7.022 7.022 0 0 0 15.014 8 7.022 7.022 0 0 0 8 .986zm0 1A6.021 6.021 0 0 1 14.014 8a5.984 5.984 0 0 1-1.606 4.074 5.836 5.836 0 0 0-2.564-1.754 2.999 2.999 0 0 0 1.11-2.326A2.997 2.997 0 0 0 7.94 5.006a2.997 2.997 0 0 0-2.988 3.012c0 .929.436 1.75 1.104 2.298a5.846 5.846 0 0 0-2.526 1.698A5.964 5.964 0 0 1 1.986 8 6.021 6.021 0 0 1 8 1.986zm-.035 4.02c1.097 0 1.988.892 1.988 2.012A1.988 1.988 0 0 1 8.03 10c-.029 0-.057-.006-.086-.006-.025 0-.049.005-.074.006a1.994 1.994 0 0 1-1.916-2.006c0-1.096.892-1.988 2.012-1.988zm-.096 4.992c.024.001.048.008.072.008h.024c.022 0 .04-.007.062-.008a4.84 4.84 0 0 1 3.643 1.752A5.963 5.963 0 0 1 8 14.014a5.965 5.965 0 0 1-3.742-1.31 4.848 4.848 0 0 1 3.611-1.706z"/></svg>